<svg xmlns="http://www.w3.org/2000/svg" viewBox="0 0 457.6 279.4"><style type="text/css">  
	.st0{fill:#333333;}
	.st1{fill:#FFFFFF;}
	.st2{fill:#FFFFFF;stroke:#000000;stroke-width:1.0006;}
</style><path class="st0" d="M83.5 121l-10.6 86.6c-0.2 2-1.9 3.4-3.9 3.4H46.8c-2.4 0-4.2-2.1-3.9-4.4l10.9-87.5c0.1-0.7 0-1.5-0.4-2.2L3.9 13.4c-1.2-2.6 0.6-5.6 3.5-5.6H31c1.5 0 2.9 0.9 3.6 2.3L68 82.3c1.3 2.8 5.1 3.1 6.8 0.5l48.2-73.2c0.7-1.1 2-1.8 3.3-1.8h25.1c3.1 0 5 3.5 3.3 6.1L84.1 119.3C83.8 119.8 83.6 120.4 83.5 121z"/><path class="st1" d="M43.8 203.3c-1 0-1.9-0.4-2.6-1.2 -0.6-0.7-1-1.7-0.8-2.7l10.9-87.5c0.1-0.8 0-1.7-0.4-2.5L1.3 5.9C0.8 4.8 0.9 3.6 1.5 2.6 2.2 1.6 3.2 1 4.4 1H28c1.3 0 2.5 0.8 3.1 2l33.5 72.2c0.7 1.6 2.3 2.6 4 2.6 1.5 0 2.8-0.7 3.7-2l48.2-73.2c0.6-1 1.7-1.5 2.8-1.5h25.1c1.3 0 2.4 0.7 3 1.8 0.6 1.1 0.5 2.4-0.2 3.5L80.7 111.7c-0.4 0.6-0.6 1.2-0.7 1.9l-10.6 86.6c-0.2 1.7-1.7 3-3.4 3H43.8z"/><path d="M148.5 1.5c1.1 0 2.1 0.6 2.6 1.5 0.5 1 0.5 2.1-0.1 3L80.3 111.5c-0.4 0.6-0.7 1.4-0.8 2.1l-10.6 86.6c-0.2 1.5-1.4 2.6-2.9 2.6H43.8c-0.8 0-1.6-0.4-2.2-1 -0.6-0.6-0.8-1.5-0.7-2.3l10.9-87.5c0.1-0.9 0-1.9-0.4-2.7L1.8 5.7C1.4 4.8 1.4 3.7 2 2.9 2.5 2 3.4 1.5 4.4 1.5H28c1.1 0 2.2 0.7 2.6 1.7l33.5 72.2c0.8 1.8 2.5 2.8 4.5 2.8 1.7 0 3.2-0.8 4.1-2.2l48.2-73.2c0.5-0.8 1.5-1.3 2.4-1.3H148.5M148.5 0.5h-25.1c-1.3 0-2.5 0.7-3.3 1.8L71.9 75.5c-0.8 1.2-2 1.8-3.3 1.8 -1.4 0-2.9-0.8-3.6-2.3L31.6 2.8c-0.6-1.4-2-2.3-3.6-2.3H4.4c-2.9 0-4.8 3-3.5 5.6l49.5 103.5c0.3 0.7 0.4 1.4 0.4 2.2l-10.9 87.5c-0.3 2.3 1.5 4.4 3.9 4.4H66c2 0 3.6-1.5 3.9-3.4l10.6-86.6c0.1-0.6 0.3-1.2 0.6-1.7L151.8 6.6C153.5 4 151.6 0.5 148.5 0.5L148.5 0.5z"/><path class="st0" d="M235 84.5c3.2 0 5.6 2.8 5.3 5.9l-8.1 66.1c-0.7 6.1-1.6 11.5-2.6 16 -1.1 4.6-2.2 8.4-3.4 11.4 -2.5 5.9-6.6 11.1-12.3 15.7 -9.8 7.7-22.7 11.6-38.7 11.6 -15.2 0-27.4-3.9-36.5-11.7 -9.1-7.9-13.7-18.5-13.7-31.7 0-2 0.1-4.4 0.3-7.1 0.2-2.7 0.5-5.8 1-9.3l7.6-62.3c0.3-2.7 2.6-4.7 5.3-4.7h18.4c3.2 0 5.6 2.8 5.3 5.9l-7.8 63.6c-0.4 3-0.6 5.6-0.8 7.8 -0.2 2.2-0.3 4.1-0.3 5.6 0 13.1 7.7 19.6 23 19.6 8.3 0 14.4-2.1 18.4-6.4 3.9-4.3 6.6-11.8 7.9-22.6l8.5-68.9c0.3-2.7 2.6-4.6 5.3-4.6H235z"/><path class="st2" d="M232.1 77.2c3.2 0 5.6 2.8 5.3 5.9l-8.1 66.1c-0.7 6.1-1.6 11.5-2.6 16 -1.1 4.6-2.2 8.4-3.4 11.4 -2.5 5.9-6.6 11.1-12.3 15.7 -9.8 7.7-22.7 11.6-38.7 11.6 -15.2 0-27.4-3.9-36.5-11.7 -9.1-7.9-13.7-18.5-13.7-31.7 0-2 0.1-4.4 0.3-7.1 0.2-2.7 0.5-5.8 1-9.3l7.6-62.3c0.3-2.7 2.6-4.7 5.3-4.7h18.4c3.2 0 5.6 2.8 5.3 5.9l-7.8 63.6c-0.4 3-0.6 5.6-0.8 7.8 -0.2 2.2-0.3 4.1-0.3 5.6 0 13.1 7.7 19.6 23 19.6 8.3 0 14.4-2.1 18.4-6.4 3.9-4.3 6.6-11.8 7.9-22.6l8.5-68.9c0.3-2.7 2.6-4.6 5.3-4.6H232.1z"/><path class="st0" d="M297.1 88.3L297.1 88.3c-0.4 3.2 3.2 5.4 5.8 3.6 10.5-7.2 21.4-10.8 32.8-10.8 16.5 0 30.2 5.8 41.2 17.3 11 11.5 16.5 26.1 16.5 43.6 0 19.5-6.3 35.9-18.8 49.3 -12.5 13.3-28 19.9-46.5 19.9 -9.5 0-17.2-1.5-23.3-4.5 -4.7-2.2-9.7-5.8-14.8-10.7 -2.2-2.1-5.9-0.8-6.3 2.2l-9.6 77.8c-0.2 1.9-1.8 3.3-3.7 3.3h-21.6c-2.2 0-4-2-3.7-4.2l23-187.8c0.2-1.9 1.8-3.3 3.7-3.3h21.6C295.6 84.1 297.4 86.1 297.1 88.3zM364.1 143.6c0-11-3.2-19.9-9.5-27 -6.3-7.1-14.4-10.7-24.2-10.7 -11.7 0-21.5 4.3-29.4 12.9 -7.9 8.6-11.8 19.2-11.8 31.7 0 11 3.3 19.8 10 26.4 6.7 6.8 15.2 10.3 25.7 10.3 11 0 20.3-4.2 27.8-12.6C360.4 166.1 364.1 155.7 364.1 143.6z"/><path class="st2" d="M294.1 81L294.1 81c-0.4 3.2 3.2 5.4 5.8 3.6 10.5-7.2 21.4-10.8 32.8-10.8 16.5 0 30.2 5.8 41.2 17.3 11 11.5 16.5 26.1 16.5 43.6 0 19.5-6.3 35.9-18.8 49.3 -12.5 13.3-28 19.9-46.5 19.9 -9.5 0-17.2-1.5-23.3-4.5 -4.7-2.2-9.7-5.8-14.8-10.7 -2.2-2.1-5.9-0.8-6.3 2.2l-9.6 77.8c-0.2 1.9-1.8 3.3-3.7 3.3h-21.6c-2.2 0-4-2-3.7-4.2l23-187.8c0.2-1.9 1.8-3.3 3.7-3.3h21.6C292.7 76.8 294.4 78.8 294.1 81zM361.2 136.3c0-11-3.2-19.9-9.5-27 -6.3-7.1-14.4-10.7-24.2-10.7 -11.7 0-21.5 4.3-29.4 12.9 -7.9 8.6-11.8 19.2-11.8 31.7 0 11 3.3 19.8 10 26.4 6.7 6.8 15.2 10.3 25.7 10.3 11 0 20.3-4.2 27.8-12.6C357.4 158.8 361.2 148.4 361.2 136.3z"/><path class="st0" d="M438.9 193.9c0 4.9-1.7 9-5 12.4 -3.3 3.3-7.4 5-12.3 5 -5 0-9.2-1.8-12.7-5.3 -3.4-3.5-5.1-7.9-5.1-13.2 0-4.8 1.7-8.9 5-12.2 3.6-3.3 7.8-5 12.6-5 2.5 0 4.7 0.5 6.9 1.4 2.1 0.9 4 2.2 5.6 3.8 1.6 1.6 2.8 3.6 3.7 5.8C438.5 188.9 438.9 191.3 438.9 193.9zM457.6 10.7l-17.1 139.7c-0.3 2.6-2.6 4.6-5.2 4.6h-18.2c-3.1 0-5.6-2.8-5.2-5.9l17-139.7c0.3-2.6 2.6-4.6 5.2-4.6h18.3C455.5 4.8 458 7.6 457.6 10.7z"/><path class="st2" d="M436 189.6c0 4.9-1.7 9-5 12.4 -3.3 3.3-7.4 5-12.3 5 -5 0-9.2-1.8-12.7-5.3 -3.4-3.5-5.1-7.9-5.1-13.2 0-4.8 1.7-8.9 5-12.2 3.6-3.3 7.8-5 12.6-5 2.5 0 4.7 0.5 6.9 1.4 2.1 0.9 4 2.2 5.6 3.8 1.6 1.6 2.8 3.6 3.7 5.8C435.5 184.5 436 187 436 189.6zM454.6 6.4l-17.1 139.7c-0.3 2.6-2.6 4.6-5.2 4.6h-18.2c-3.1 0-5.6-2.8-5.2-5.9l17-139.7c0.3-2.6 2.6-4.6 5.2-4.6h18.3C452.6 0.5 455 3.3 454.6 6.4z"/></svg>
 

